<?xml version="1.0" encoding="UTF-8" standalone="no"?>
<svg
   width="64"
   height="64"
   version="1.1"
   id="svg85"
   sodipodi:docname="eyedropper.svg"
   inkscape:version="1.3.2 (091e20ef0f, 2023-11-25)"
   xmlns:inkscape="http://www.inkscape.org/namespaces/inkscape"
   xmlns:sodipodi="http://sodipodi.sourceforge.net/DTD/sodipodi-0.dtd"
   xmlns:xlink="http://www.w3.org/1999/xlink"
   xmlns="http://www.w3.org/2000/svg"
   xmlns:svg="http://www.w3.org/2000/svg">
  <sodipodi:namedview
     id="namedview85"
     pagecolor="#ffffff"
     bordercolor="#000000"
     borderopacity="0.25"
     inkscape:showpageshadow="2"
     inkscape:pageopacity="0.0"
     inkscape:pagecheckerboard="0"
     inkscape:deskcolor="#d1d1d1"
     inkscape:zoom="5.4358834"
     inkscape:cx="36.424622"
     inkscape:cy="41.207654"
     inkscape:window-width="1366"
     inkscape:window-height="696"
     inkscape:window-x="0"
     inkscape:window-y="0"
     inkscape:window-maximized="1"
     inkscape:current-layer="svg85" />
  <defs
     id="defs61">
    <linearGradient
       id="e">
      <stop
         offset="0"
         style="stop-color:#74717b;stop-opacity:1"
         id="stop1" />
      <stop
         offset="1"
         style="stop-color:#9d9d9f;stop-opacity:1"
         id="stop2" />
    </linearGradient>
    <linearGradient
       id="f"
       x1="7.937"
       x2="7.937"
       y1="15.081"
       y2="1.852"
       gradientTransform="scale(3.7796)"
       gradientUnits="userSpaceOnUse">
      <stop
         offset="0"
         stop-color="#f54800"
         id="stop3" />
      <stop
         offset="1"
         stop-color="#ffb200"
         id="stop4" />
    </linearGradient>
    <linearGradient
       id="i"
       x1="16"
       x2="128"
       y1="74"
       y2="74"
       gradientTransform="matrix(1 0 0 .76924 -44 4.077)"
       gradientUnits="userSpaceOnUse">
      <stop
         offset="0"
         stop-color="#63452c"
         id="stop5" />
      <stop
         offset=".036"
         stop-color="#865e3c"
         id="stop6" />
      <stop
         offset=".071"
         stop-color="#63452c"
         id="stop7" />
      <stop
         offset=".929"
         stop-color="#63452c"
         id="stop8" />
      <stop
         offset=".964"
         stop-color="#865e3c"
         id="stop9" />
      <stop
         offset="1"
         stop-color="#63452c"
         id="stop10" />
    </linearGradient>
    <linearGradient
       id="k"
       x1="23"
       x2="23"
       y1="238"
       y2="222"
       gradientTransform="matrix(0 1.5 -1.5 0 333 -35)"
       gradientUnits="userSpaceOnUse">
      <stop
         offset="0"
         stop-color="#2ec27e"
         id="stop11" />
      <stop
         offset=".5"
         stop-color="#8ff0a4"
         id="stop12" />
      <stop
         offset="1"
         stop-color="#2ec27e"
         id="stop13" />
    </linearGradient>
    <linearGradient
       id="o"
       x1="15"
       x2="33"
       y1="58"
       y2="58"
       gradientTransform="translate(-36 -35)"
       gradientUnits="userSpaceOnUse">
      <stop
         offset="0"
         stop-color="#2ec27e"
         id="stop14" />
      <stop
         offset=".5"
         stop-color="#57e389"
         id="stop15" />
      <stop
         offset="1"
         stop-color="#2ec27e"
         id="stop16" />
    </linearGradient>
    <linearGradient
       id="q"
       x1="46"
       x2="46"
       y1="232"
       y2="228"
       gradientTransform="matrix(0 -1.1875 -2 0 448 108.5)"
       gradientUnits="userSpaceOnUse">
      <stop
         offset="0"
         stop-color="#9a9996"
         id="stop17" />
      <stop
         offset=".5"
         stop-color="#fff"
         id="stop18" />
      <stop
         offset="1"
         stop-color="#c0bfbc"
         id="stop19" />
    </linearGradient>
    <linearGradient
       xlink:href="#a"
       id="w"
       x1="81"
       x2="81"
       y1="47"
       y2="65"
       gradientTransform="matrix(1.5 0 0 1.55556 -98 -94.11)" />
    <linearGradient
       id="a"
       gradientUnits="userSpaceOnUse">
      <stop
         offset="0"
         stop-color="#c0bfbc"
         id="stop20" />
      <stop
         offset=".5"
         stop-color="#deddda"
         id="stop21" />
      <stop
         offset="1"
         stop-color="#9a9996"
         id="stop22" />
    </linearGradient>
    <linearGradient
       xlink:href="#a"
       id="x"
       x1="92"
       x2="104"
       y1="244"
       y2="244"
       gradientTransform="matrix(.83333 0 0 .82143 -26.667 -178.429)" />
    <linearGradient
       id="j"
       x1="16"
       x2="128"
       y1="74"
       y2="74"
       gradientTransform="matrix(1,0,0,0.76924,-26.998,22.296)"
       gradientUnits="userSpaceOnUse">
      <stop
         offset="0"
         stop-color="#3d3846"
         id="stop23" />
      <stop
         offset=".036"
         stop-color="#5e5c64"
         id="stop24" />
      <stop
         offset=".071"
         stop-color="#3d3846"
         id="stop25" />
      <stop
         offset=".929"
         stop-color="#3d3846"
         id="stop26" />
      <stop
         offset=".964"
         stop-color="#5e5c64"
         id="stop27" />
      <stop
         offset="1"
         stop-color="#3d3846"
         id="stop28" />
    </linearGradient>
    <linearGradient
       id="l"
       x1="84"
       x2="104"
       y1="258"
       y2="258"
       gradientTransform="rotate(-90,-23.89,155.109)"
       gradientUnits="userSpaceOnUse">
      <stop
         offset="0"
         stop-color="#46a2ed"
         id="stop29" />
      <stop
         offset="1"
         stop-color="#41c6f1"
         id="stop30" />
    </linearGradient>
    <linearGradient
       id="n"
       x1="50"
       x2="70"
       y1="258"
       y2="258"
       gradientTransform="rotate(-90,-57.89,155.109)"
       gradientUnits="userSpaceOnUse">
      <stop
         offset="0"
         stop-color="#c9c8c5"
         id="stop31" />
      <stop
         offset="1"
         stop-color="#f6f5f4"
         id="stop32" />
    </linearGradient>
    <linearGradient
       id="p"
       x1="84"
       x2="104"
       y1="258"
       y2="258"
       gradientTransform="rotate(-90,-5.89,173.109)"
       gradientUnits="userSpaceOnUse">
      <stop
         offset="0"
         stop-color="#e5a50a"
         id="stop33" />
      <stop
         offset="1"
         stop-color="#f6d32d"
         id="stop34" />
    </linearGradient>
    <linearGradient
       id="r"
       x1="50"
       x2="70"
       y1="258"
       y2="258"
       gradientTransform="rotate(-90,-39.89,173.109)"
       gradientUnits="userSpaceOnUse">
      <stop
         offset="0"
         stop-color="#576ce3"
         id="stop35" />
      <stop
         offset="0"
         stop-color="#bb34b1"
         id="stop36" />
      <stop
         offset="1"
         stop-color="#e31f9e"
         id="stop37" />
    </linearGradient>
    <linearGradient
       id="z"
       x1="72.062"
       x2="40.97"
       y1="230.291"
       y2="310.562"
       gradientTransform="matrix(0.59942,-0.89267,0.96545,0.47336,-261.508,3.23)"
       gradientUnits="userSpaceOnUse">
      <stop
         offset="0"
         stop-color="#1ebef1"
         id="stop38" />
      <stop
         offset="1"
         stop-color="#2509e8"
         id="stop39" />
    </linearGradient>
    <linearGradient
       id="B"
       x1="16"
       x2="30"
       y1="86"
       y2="86"
       gradientTransform="rotate(-15,-101.733,169.572)"
       gradientUnits="userSpaceOnUse">
      <stop
         offset="0"
         stop-color="#f6f5f4"
         stop-opacity=".502"
         id="stop40" />
      <stop
         offset="1"
         stop-color="#fff"
         stop-opacity="0"
         id="stop41" />
    </linearGradient>
    <linearGradient
       id="D"
       x1="-2.958"
       x2="62.958"
       y1="42"
       y2="42"
       gradientTransform="rotate(-15,-101.733,169.572)"
       gradientUnits="userSpaceOnUse">
      <stop
         offset="0"
         stop-color="#241f31"
         id="stop42" />
      <stop
         offset=".288"
         stop-color="#77767b"
         id="stop43" />
      <stop
         offset=".652"
         stop-color="#2f2840"
         id="stop44" />
      <stop
         offset="1"
         stop-color="#241f31"
         id="stop45" />
    </linearGradient>
    <linearGradient
       id="F"
       x1="4"
       x2="56"
       y1="38.5"
       y2="38.5"
       gradientTransform="rotate(-15,-101.733,169.572)"
       gradientUnits="userSpaceOnUse">
      <stop
         offset="0"
         stop-color="#fff"
         stop-opacity="0"
         id="stop46" />
      <stop
         offset=".3"
         stop-color="#fff"
         stop-opacity=".263"
         id="stop47" />
      <stop
         offset="1"
         stop-color="#fff"
         stop-opacity="0"
         id="stop48" />
    </linearGradient>
    <linearGradient
       xlink:href="#e"
       id="g"
       x1="32.001"
       x2="32.001"
       y1="3.969"
       y2="59.971"
       gradientUnits="userSpaceOnUse"
       gradientTransform="translate(92.007114,-1.1468496)" />
    <clipPath
       id="c">
      <path
         d="M20 10h8v25h-8zm0 0"
         id="path48" />
    </clipPath>
    <clipPath
       id="y">
      <path
         d="M24 10c-6.629 0-12 5.371-12 12v22c0 2.21 1.79 4 4 4 1.105 0 2 .895 2 2v7c0 1.105-.895 2-2 2-2.21 0-4 1.79-4 4v2h24v-2c0-2.21-1.79-4-4-4-1.105 0-2-.895-2-2v-7c0-1.105.895-2 2-2 2.21 0 4-1.79 4-4V22c0-6.629-5.371-12-12-12Zm0 0"
         id="path49" />
    </clipPath>
    <clipPath
       id="A">
      <path
         d="M12 10h4v31h-4zm0 0"
         id="path50" />
    </clipPath>
    <clipPath
       id="v">
      <path
         d="M24 10c-6.629 0-12 5.371-12 12v22c0 2.21 1.79 4 4 4 1.105 0 2 .895 2 2v7c0 1.105-.895 2-2 2-2.21 0-4 1.79-4 4v2h24v-2c0-2.21-1.79-4-4-4-1.105 0-2-.895-2-2v-7c0-1.105.895-2 2-2 2.21 0 4-1.79 4-4V22c0-6.629-5.371-12-12-12Zm0 0"
         id="path51" />
    </clipPath>
    <clipPath
       id="s">
      <path
         d="M0 0h192v152H0z"
         id="path52" />
    </clipPath>
    <filter
       id="b"
       width="1"
       height="1"
       x="0"
       y="0">
      <feColorMatrix
         in="SourceGraphic"
         values="0 0 0 0 1 0 0 0 0 1 0 0 0 0 1 0 0 0 1 0"
         id="feColorMatrix52" />
    </filter>
    <filter
       id="d"
       width="1"
       height="1"
       x="0"
       y="0">
      <feColorMatrix
         in="SourceGraphic"
         values="0 0 0 0 1 0 0 0 0 1 0 0 0 0 1 0 0 0 1 0"
         id="feColorMatrix53" />
    </filter>
    <filter
       id="u"
       width="1.2420333"
       height="1.1084605"
       x="-0.12101664"
       y="-0.05423025"
       style="color-interpolation-filters:sRGB">
      <feGaussianBlur
         stdDeviation="2.792"
         id="feGaussianBlur53" />
    </filter>
    <filter
       id="h"
       width="1.1341597"
       height="1.1700054"
       x="-0.067079866"
       y="-0.085002687"
       style="color-interpolation-filters:sRGB">
      <feGaussianBlur
         stdDeviation="1.186"
         id="feGaussianBlur54" />
    </filter>
    <radialGradient
       id="m"
       cx="24"
       cy="53"
       r="14"
       gradientTransform="translate(-36 -35)"
       gradientUnits="userSpaceOnUse">
      <stop
         offset="0"
         stop-color="#26a269"
         id="stop54" />
      <stop
         offset=".7"
         stop-color="#26a269"
         stop-opacity=".478"
         id="stop55" />
      <stop
         offset="1"
         stop-color="#26a269"
         stop-opacity="0"
         id="stop56" />
    </radialGradient>
    <radialGradient
       id="C"
       cx="26"
       cy="190.167"
       r="14"
       gradientTransform="matrix(0.96593,-0.25882,0.44369,1.65587,-128.106,-321.921)"
       gradientUnits="userSpaceOnUse">
      <stop
         offset="0"
         stop-color="#5e5c64"
         id="stop57" />
      <stop
         offset="1"
         stop-color="#241f31"
         id="stop58" />
    </radialGradient>
    <radialGradient
       id="E"
       cx="30"
       cy="186"
       r="14"
       gradientTransform="matrix(1.14893,-0.30786,0.25882,0.96593,-97.362,-185.22)"
       gradientUnits="userSpaceOnUse">
      <stop
         offset="0"
         stop-color="#9a9996"
         stop-opacity="0"
         id="stop59" />
      <stop
         offset=".779"
         stop-color="#9a9996"
         stop-opacity="0"
         id="stop60" />
      <stop
         offset="1"
         stop-color="#77767b"
         id="stop61" />
    </radialGradient>
    <mask
       id="t">
      <g
         filter="url(#c)"
         style="filter:url(#d)"
         id="g61">
        <path
           fill-opacity=".3"
           d="M0 0h128v128H0z"
           id="path61" />
      </g>
    </mask>
  </defs>
  <g
     id="g85"
     transform="matrix(1.1218078,0,0,1.1218078,1.1255911,-0.59765185)">
    <path
       fill="#5e5c64"
       d="M 13.798,16.662 H 50.17 c 1.674,0 3.031,1.5 3.031,3.349 V 46.8 c 0,1.849 -1.357,3.348 -3.031,3.348 H 13.798 c -1.674,0 -3.03,-1.5 -3.03,-3.348 V 20.01 c 0,-1.849 1.356,-3.348 3.03,-3.348 z m 0,0"
       style="opacity:0.500261;fill:#000000;fill-opacity:1;stroke-width:0.398232;filter:url(#h)"
       id="path62" />
    <path
       fill="url(#i)"
       d="m -2.998,59.22 h 96 a 8,8 0 0 1 8,8 v 24 a 8,8 0 0 1 -8,8 h -96 a 8,8 0 0 1 -8,-8 v -24 a 8,8 0 0 1 8,-8 z m 0,0"
       style="fill:url(#j)"
       transform="matrix(0.38316,0,0,0.38316,14.758,12.375)"
       id="path63" />
    <path
       fill="#5e5c64"
       d="m 13.61,16.674 h 36.783 a 3.065,3.065 0 0 1 3.065,3.065 V 44.26 a 3.065,3.065 0 0 1 -3.065,3.065 H 13.609 A 3.065,3.065 0 0 1 10.544,44.26 V 19.74 a 3.065,3.065 0 0 1 3.065,-3.065 z m 0,0"
       id="path64" />
    <path
       fill="url(#k)"
       d="m 79.002,19.22 c 7.73,0 14,6.27 14,14 0,7.73 -6.27,14 -14,14 -7.73,0 -14,-6.27 -14,-14 0,-7.73 6.27,-14 14,-14 z m 0,0"
       style="fill:url(#l)"
       transform="matrix(0.38316,0,0,0.38316,14.758,12.375)"
       id="path65" />
    <path
       fill="url(#m)"
       d="m 45.002,19.22 c 7.73,0 14,6.27 14,14 0,7.73 -6.27,14 -14,14 -7.73,0 -14,-6.27 -14,-14 0,-7.73 6.27,-14 14,-14 z m 0,0"
       style="fill:url(#n)"
       transform="matrix(0.38316,0,0,0.38316,14.758,12.375)"
       id="path66" />
    <path
       fill="url(#o)"
       d="m 79.002,55.22 c 7.73,0 14,6.27 14,14 0,7.73 -6.27,14 -14,14 -7.73,0 -14,-6.27 -14,-14 0,-7.73 6.27,-14 14,-14 z m 0,0"
       style="fill:url(#p)"
       transform="matrix(0.38316,0,0,0.38316,14.758,12.375)"
       id="path67" />
    <path
       fill="url(#q)"
       d="m 45.002,55.22 c 7.73,0 14,6.27 14,14 0,7.73 -6.27,14 -14,14 -7.73,0 -14,-6.27 -14,-14 0,-7.73 6.27,-14 14,-14 z m 0,0"
       style="fill:url(#r)"
       transform="matrix(0.38316,0,0,0.38316,14.758,12.375)"
       id="path68" />
    <g
       clip-path="url(#s)"
       mask="url(#t)"
       transform="matrix(0.38316,0,0,0.38316,4.414,-0.185)"
       id="g69">
      <path
         d="m 72,52 c -7.73,0 -14,6.27 -14,14 0.031,0.504 0.086,1.004 0.172,1.5 A 13.997,13.997 0 0 1 72,55 c 7.016,0.004 12.945,5.195 13.871,12.148 C 85.93,66.766 85.973,66.383 86,66 86,58.27 79.73,52 72,52 Z m 34,0 c -7.73,0 -14,6.27 -14,14 0.031,0.504 0.086,1.004 0.172,1.5 A 13.997,13.997 0 0 1 106,55 c 7.016,0.004 12.945,5.195 13.871,12.148 C 119.93,66.766 119.973,66.383 120,66 120,58.27 113.73,52 106,52 Z M 72,88 c -7.73,0 -14,6.27 -14,14 0.031,0.504 0.086,1.004 0.172,1.5 A 13.997,13.997 0 0 1 72,91 c 7.016,0.004 12.945,5.195 13.871,12.148 C 85.93,102.766 85.973,102.383 86,102 86,94.27 79.73,88 72,88 Z m 34,0 c -7.73,0 -14,6.27 -14,14 0.031,0.504 0.086,1.004 0.172,1.5 A 13.997,13.997 0 0 1 106,91 c 7.016,0.004 12.945,5.195 13.871,12.148 0.059,-0.382 0.102,-0.765 0.129,-1.148 0,-7.73 -6.27,-14 -14,-14 z m 0,0"
         id="path69" />
    </g>
    <g
       style="opacity:0.498471;fill:#000000;fill-opacity:1;filter:url(#u)"
       transform="matrix(0.38316,0,0,0.38316,14.4,16.42)"
       id="g75">
      <path
         fill="#fff"
         fill-opacity=".6"
         d="m -19.994,19.739 14.39,53.707 c 0.914,3.41 4.15,7.655 6.728,10.062 3.366,3.143 5.683,6.736 7.979,11.257 l 10.263,-2.75 c -0.273,-5.063 -0.063,-9.334 1.28,-13.738 1.03,-3.373 1.71,-8.667 0.796,-12.078 L 7.052,12.492 Z m 0,0"
         style="display:inline;fill:#000000;fill-opacity:1"
         id="path70" />
      <path
         fill="url(#v)"
         d="m -18.377,-28.317 c 7.467,-2 15.146,2.432 17.146,9.9 L 3.946,0.9 c 2,7.467 -2.433,15.146 -9.9,17.146 -7.467,2.001 -15.145,-2.432 -17.146,-9.9 l -5.177,-19.318 c -2,-7.467 2.433,-15.145 9.9,-17.146 z m 0,0"
         style="fill:#000000;fill-opacity:1"
         id="path71" />
      <path
         fill="url(#a)"
         d="M -31.276,12.41 13.157,0.502 a 3,3 0 0 1 3.674,2.122 l 1.553,5.795 a 3,3 0 0 1 -2.122,3.675 L -28.17,24 a 3,3 0 0 1 -3.674,-2.121 l -1.553,-5.796 a 3,3 0 0 1 2.121,-3.674 z m 0,0"
         style="fill:#000000;fill-opacity:1"
         id="path72" />
      <path
         fill-opacity=".149"
         d="m -32.362,19.947 0.518,1.932 A 2.996,2.996 0 0 0 -28.17,24 L 16.262,12.095 A 2.996,2.996 0 0 0 18.384,8.42 L 17.866,6.488 a 2.996,2.996 0 0 1 -2.121,3.675 l -44.433,11.905 a 2.996,2.996 0 0 1 -3.674,-2.12 z m 0,0"
         style="fill:#000000;fill-opacity:1"
         id="path73" />
      <path
         fill="url(#w)"
         d="m -28.277,-11.17 c -2,-7.468 2.433,-15.146 9.9,-17.147 7.467,-2 15.146,2.432 17.146,9.9"
         style="fill:#000000;fill-opacity:1"
         id="path74" />
      <path
         fill="url(#x)"
         d="m -32.88,18.015 -0.517,-1.932 a 2.996,2.996 0 0 1 2.121,-3.674 L 13.157,0.503 a 2.996,2.996 0 0 1 3.674,2.122 l 0.518,1.932 A 2.996,2.996 0 0 0 13.674,2.435 l -44.432,11.906 a 2.996,2.996 0 0 0 -2.122,3.674 z m 0,0"
         style="fill:#000000;fill-opacity:1"
         id="path75" />
    </g>
    <path
       fill="#ffffff"
       fill-opacity="0.6"
       d="m 6.74,23.982 5.513,20.579 c 0.35,1.306 1.59,2.933 2.578,3.855 1.29,1.204 2.177,2.58 3.057,4.313 l 3.932,-1.054 c -0.104,-1.94 -0.024,-3.576 0.491,-5.263 0.394,-1.293 0.655,-3.321 0.305,-4.628 L 17.102,21.206 Z m 0,0"
       id="path76" />
    <path
       fill="url(#y)"
       d="m 4.625,31.826 c -2.731,1.14 -2.914,4.052 -3.405,6.748 -0.909,5.21 -4.399,1.15 -7.821,2.095 -0.67,0.184 -1.285,0.717 -1.834,1.442 -0.386,0.492 -0.717,1.127 -0.989,1.624 L -1.74,72.41 c 0.519,1.935 3.508,6.226 5.595,8.174 2.993,2.793 5.162,6.026 7.152,9.528 l 4.384,-1.174 c -0.028,-4.029 0.234,-7.913 1.429,-11.828 0.833,-2.73 1.277,-7.941 0.759,-9.877 L 7.956,31.338 C 6.72,31.268 5.69,31.484 4.626,31.826 Z m 0,0"
       style="fill:url(#z)"
       transform="matrix(0.38316,0,0,0.38316,14.4,16.42)"
       id="path77" />
    <path
       fill="url(#A)"
       d="m -19.994,19.739 14.39,53.707 c 0.914,3.41 4.15,7.655 6.728,10.062 3.366,3.143 5.683,6.736 7.979,11.257 l 10.263,-2.75 c -0.273,-5.063 -0.063,-9.334 1.28,-13.738 1.03,-3.373 1.71,-8.667 0.796,-12.078 L 7.052,12.492 Z m 0,0"
       style="fill:url(#B)"
       transform="matrix(0.38316,0,0,0.38316,14.4,16.42)"
       id="path78" />
    <path
       fill="none"
       stroke="#ffffff"
       stroke-linecap="round"
       stroke-opacity="0.141"
       stroke-width="6.13056"
       d="M 15.371,44.354 10.097,24.67"
       id="path79" />
    <path
       fill="none"
       stroke="#ffffff"
       stroke-linecap="round"
       stroke-opacity="0.302"
       stroke-width="1.53264"
       d="M 15.173,43.614 9.898,23.929"
       id="path80" />
    <path
       fill="url(#v)"
       d="m -18.377,-28.317 c 7.467,-2 15.146,2.432 17.146,9.9 L 3.946,0.9 c 2,7.467 -2.433,15.146 -9.9,17.146 -7.467,2.001 -15.145,-2.432 -17.146,-9.9 l -5.177,-19.318 c -2,-7.467 2.433,-15.145 9.9,-17.146 z m 0,0"
       style="fill:url(#C)"
       transform="matrix(0.38316,0,0,0.38316,14.4,16.42)"
       id="path81" />
    <path
       fill="url(#a)"
       d="M -31.276,12.41 13.157,0.502 a 3,3 0 0 1 3.674,2.122 l 1.553,5.795 a 3,3 0 0 1 -2.122,3.675 L -28.17,24 a 3,3 0 0 1 -3.674,-2.121 l -1.553,-5.796 a 3,3 0 0 1 2.121,-3.674 z m 0,0"
       style="fill:url(#D)"
       transform="matrix(0.38316,0,0,0.38316,14.4,16.42)"
       id="path82" />
    <path
       fill-opacity="0.149"
       d="m 2,24.062 0.199,0.74 c 0.164,0.615 0.793,0.978 1.407,0.813 l 17.025,-4.562 c 0.615,-0.164 0.978,-0.793 0.813,-1.408 l -0.198,-0.74 a 1.148,1.148 0 0 1 -0.813,1.408 L 3.408,24.875 A 1.148,1.148 0 0 1 2,24.062 Z m 0,0"
       id="path83" />
    <path
       fill="url(#w)"
       d="m -28.277,-11.17 c -2,-7.468 2.433,-15.146 9.9,-17.147 7.467,-2 15.146,2.432 17.146,9.9"
       style="fill:url(#E)"
       transform="matrix(0.38316,0,0,0.38316,14.4,16.42)"
       id="path84" />
    <path
       fill="url(#x)"
       d="m -32.88,18.015 -0.517,-1.932 a 2.996,2.996 0 0 1 2.121,-3.674 L 13.157,0.503 a 2.996,2.996 0 0 1 3.674,2.122 l 0.518,1.932 A 2.996,2.996 0 0 0 13.674,2.435 l -44.432,11.906 a 2.996,2.996 0 0 0 -2.122,3.674 z m 0,0"
       style="fill:url(#F)"
       transform="matrix(0.38316,0,0,0.38316,14.4,16.42)"
       id="path85" />
  </g>
</svg>
