<?xml version="1.0" encoding="UTF-8" standalone="no"?>
<svg
   viewBox="0 0 24 24"
   version="1.1"
   id="svg1"
   sodipodi:docname="media-playback-playing.svg"
   width="24"
   height="24"
   inkscape:version="1.3.2 (091e20ef0f, 2023-11-25)"
   xmlns:inkscape="http://www.inkscape.org/namespaces/inkscape"
   xmlns:sodipodi="http://sodipodi.sourceforge.net/DTD/sodipodi-0.dtd"
   xmlns="http://www.w3.org/2000/svg"
   xmlns:svg="http://www.w3.org/2000/svg">
  <sodipodi:namedview
     id="namedview1"
     pagecolor="#ffffff"
     bordercolor="#000000"
     borderopacity="0.25"
     inkscape:showpageshadow="2"
     inkscape:pageopacity="0.0"
     inkscape:pagecheckerboard="0"
     inkscape:deskcolor="#d1d1d1"
     inkscape:zoom="11.984375"
     inkscape:cx="10.889179"
     inkscape:cy="11.34811"
     inkscape:window-width="1920"
     inkscape:window-height="996"
     inkscape:window-x="0"
     inkscape:window-y="0"
     inkscape:window-maximized="1"
     inkscape:current-layer="svg1" />
  <defs
     id="defs1">
    <style
       type="text/css"
       id="style1">.ColorScheme-Text {
        color:#d8dee9;
      }</style>
  </defs>
  <g
     id="g3">
    <g
       id="g2">
      <g
         id="g1">
        <rect
           id="rect179"
           style="opacity:0.00100002;fill:#d3dae3;fill-opacity:1;stroke-width:1"
           y="1"
           x="1"
           height="22"
           width="22" />
        <path
           inkscape:connector-curvature="0"
           id="path187"
           d="m 12,4.0000003 a 7.9999997,7.9999998 0 0 0 -8,7.9999987 7.9999997,7.9999998 0 0 0 8,8.000002 7.9999997,7.9999998 0 0 0 8,-8.000002 7.9999997,7.9999998 0 0 0 -8,-7.9999987 z M 9.8453118,7.2015723 A 1.0911199,1.1079166 0 0 1 10.46875,7.3687624 l 2.909366,1.8453105 2.909388,1.8468661 a 1.0911199,1.1079166 0 0 1 0,1.878123 l -2.909388,1.846864 -2.909366,1.845309 A 1.0911199,1.1079166 0 0 1 8.7999997,15.692174 V 8.3078258 A 1.0911199,1.1079166 0 0 1 9.8453118,7.2015723 Z"
           style="fill:#d3dae3;fill-opacity:1;stroke-width:1.2" />
      </g>
    </g>
  </g>
</svg>
