<?xml version="1.0" encoding="UTF-8" standalone="no"?>
<svg
   width="22"
   height="22"
   version="1.1"
   id="svg1"
   sodipodi:docname="video-display-brightness-symbolic.svg"
   inkscape:version="1.3.2 (091e20ef0f, 2023-11-25)"
   xmlns:inkscape="http://www.inkscape.org/namespaces/inkscape"
   xmlns:sodipodi="http://sodipodi.sourceforge.net/DTD/sodipodi-0.dtd"
   xmlns="http://www.w3.org/2000/svg"
   xmlns:svg="http://www.w3.org/2000/svg">
  <defs
     id="defs1" />
  <sodipodi:namedview
     id="namedview1"
     pagecolor="#ffffff"
     bordercolor="#999999"
     borderopacity="1"
     inkscape:showpageshadow="2"
     inkscape:pageopacity="0"
     inkscape:pagecheckerboard="0"
     inkscape:deskcolor="#d1d1d1"
     inkscape:zoom="11.90625"
     inkscape:cx="11.170604"
     inkscape:cy="10.666667"
     inkscape:window-width="1920"
     inkscape:window-height="996"
     inkscape:window-x="0"
     inkscape:window-y="0"
     inkscape:window-maximized="1"
     inkscape:current-layer="svg1"
     showgrid="true">
    <inkscape:grid
       id="grid2"
       units="px"
       originx="0"
       originy="0"
       spacingx="1"
       spacingy="1"
       empcolor="#0099e5"
       empopacity="0.30196078"
       color="#0099e5"
       opacity="0.14901961"
       empspacing="5"
       dotted="false"
       gridanglex="30"
       gridanglez="30"
       visible="true" />
  </sodipodi:namedview>
  <style
     type="text/css"
     id="current-color-scheme">.ColorScheme-Text { color:#d3dae3; }
.ColorScheme-Background { color:#EFF0F1; }
.ColorScheme-Highlight { color:#3DAEE6; }
.ColorScheme-ViewText { color:#7B7C7E; }
.ColorScheme-ViewBackground { color:#FCFCFC; }
.ColorScheme-ViewHover { color:#3DAEE6; }
.ColorScheme-ViewFocus { color:#1E92FF; }
.ColorScheme-ButtonText { color:#7B7C7E; }
.ColorScheme-ButtonBackground { color:#EFF0F1; }
.ColorScheme-ButtonHover { color:#3DAEE6; }
.ColorScheme-ButtonFocus { color: #1E92FF; }
</style>
  <g
     id="22-22-video-display-brightness"
     style="fill:#d3dae3;fill-opacity:1">
    <g
       id="g893"
       style="fill:#d3dae3;fill-opacity:1">
      <rect
         style="opacity:0.00100002;fill:#d3dae3;fill-opacity:1"
         width="22"
         height="22"
         x="0"
         y="-1.3897704e-07"
         id="rect2" />
      <path
         d="m 12.862008,8.7661797 a 0.45881443,0.42607703 0 0 1 0,-0.5029417 l 0.408731,-0.5162333 a 0.45881443,0.42607703 0 0 0 -0.419977,-0.67565 L 12.166114,7.140644 A 0.45881443,0.42607703 0 0 1 11.695045,6.8872827 l -0.277944,-0.5855 a 0.45881443,0.42607703 0 0 0 -0.839971,0 l -0.277944,0.5855 A 0.45881443,0.42607703 0 0 1 9.830142,7.138762 l -0.6846401,-0.0693 a 0.45881443,0.42607703 0 0 0 -0.4199837,0.67565 l 0.4087469,0.516229 a 0.45881443,0.42607703 0 0 1 0,0.50294 L 8.7255182,9.2805082 A 0.45881443,0.42607703 0 0 0 9.1455019,9.9561576 L 9.830142,9.8869309 a 0.45881443,0.42607703 0 0 1 0.469044,0.2514741 l 0.277944,0.585501 a 0.45881443,0.42607703 0 0 0 0.839971,0 l 0.277944,-0.585501 A 0.45881443,0.42607703 0 0 1 12.16407,9.8869309 l 0.684647,0.069236 A 0.45881443,0.42607703 0 0 0 13.268693,9.2805098 Z M 10.99915,9.6135884 A 1.1833122,1.0988803 0 1 1 12.179405,8.514703 1.1833122,1.0988803 0 0 1 10.99915,9.6135884 Z M 12.27546,6.7923647 11.954586,6.620606 12.334732,6.007591 12.655587,6.179348 Z M 8.7623029,8.320176 V 8.663692 L 8,8.657317 V 8.3137247 Z M 13.231912,8.718733 13.237712,8.375207 14,8.3870895 13.994217,8.7306108 Z M 10.064148,6.616808 9.7412443,6.785728 9.3641828,6.168907 9.6870835,5.999997 Z m -0.3596846,3.598407 0.3198316,0.174613 -0.3862613,0.610169 -0.3188108,-0.174604 z m 2.2971416,0.160377 0.316769,-0.178401 0.395464,0.604467 -0.316789,0.178406 z"
         id="path4-5"
         style="stroke-width:0.0984728;fill-opacity:1;fill:currentColor;"
         class="ColorScheme-Text" />
      <path
         d="M 18.938051,2.999997 H 3.0619676 C 2.4764676,2.999997 2,3.481711 2,4.073658 v 11.828339 c 0,0.591942 0.4764676,1.098 1.0619676,1.098 h 5.8433446 c -0.1823353,0.597101 -0.6112455,1.34286 -1.4757979,1.34286 v 0.65714 h 7.1409797 v -0.65714 c -0.864552,0 -1.293466,-0.745759 -1.475789,-1.34286 h 5.843346 C 19.52354,16.999997 20,16.493939 20,15.901997 V 4.07341 C 20,3.481479 19.52354,2.999997 18.938051,2.999997 Z M 19,15.701872 c 0,0.104129 0,0.298125 -0.262,0.298125 H 3.3 C 3,15.999997 3,15.80583 3,15.701708 v -1.701711 h 16 z m 0,-2.701875 H 3 v -8.627 c 0,-0.104115 0,-0.373 0.262,-0.373 h 15.476 c 0.262,0 0.262,0.268859 0.262,0.373 z"
         id="path2-3"
         style="fill-opacity:1;fill:currentColor;"
         sodipodi:nodetypes="sssssccccccssssssssccsccssssc"
         class="ColorScheme-Text" />
    </g>
  </g>
</svg>
