<?xml version="1.0" encoding="UTF-8" standalone="no"?>
<svg
   width="32"
   height="32"
   version="1.1"
   id="svg1"
   sodipodi:docname="video-display-brightness-symbolic.svg"
   inkscape:version="1.3.2 (091e20ef0f, 2023-11-25)"
   xmlns:inkscape="http://www.inkscape.org/namespaces/inkscape"
   xmlns:sodipodi="http://sodipodi.sourceforge.net/DTD/sodipodi-0.dtd"
   xmlns="http://www.w3.org/2000/svg"
   xmlns:svg="http://www.w3.org/2000/svg">
  <defs
     id="defs1" />
  <sodipodi:namedview
     id="namedview1"
     pagecolor="#ffffff"
     bordercolor="#999999"
     borderopacity="1"
     inkscape:showpageshadow="2"
     inkscape:pageopacity="0"
     inkscape:pagecheckerboard="0"
     inkscape:deskcolor="#d1d1d1"
     inkscape:zoom="11.90625"
     inkscape:cx="16.209974"
     inkscape:cy="15.790026"
     inkscape:window-width="1920"
     inkscape:window-height="996"
     inkscape:window-x="0"
     inkscape:window-y="0"
     inkscape:window-maximized="1"
     inkscape:current-layer="svg1"
     showgrid="true">
    <inkscape:grid
       id="grid1"
       units="px"
       originx="0"
       originy="0"
       spacingx="1"
       spacingy="1"
       empcolor="#0099e5"
       empopacity="0.30196078"
       color="#0099e5"
       opacity="0.14901961"
       empspacing="5"
       dotted="false"
       gridanglex="30"
       gridanglez="30"
       visible="true" />
  </sodipodi:namedview>
  <style
     type="text/css"
     id="current-color-scheme">.ColorScheme-Text { color:#d3dae3; }
.ColorScheme-Background { color:#EFF0F1; }
.ColorScheme-Highlight { color:#3DAEE6; }
.ColorScheme-ViewText { color:#7B7C7E; }
.ColorScheme-ViewBackground { color:#FCFCFC; }
.ColorScheme-ViewHover { color:#3DAEE6; }
.ColorScheme-ViewFocus { color:#1E92FF; }
.ColorScheme-ButtonText { color:#7B7C7E; }
.ColorScheme-ButtonBackground { color:#EFF0F1; }
.ColorScheme-ButtonHover { color:#3DAEE6; }
.ColorScheme-ButtonFocus { color: #1E92FF; }
</style>
  <g
     id="video-display-brightness"
     transform="translate(32,10.000003)"
     style="fill:#d3dae3;fill-opacity:1">
    <rect
       style="opacity:0.00100002;fill:#d3dae3;fill-opacity:1"
       width="32"
       height="32"
       x="-32"
       y="-10.000003"
       id="rect7" />
    <path
       d="m -12.896433,2.9791297 a 0.76471095,0.76693863 0 0 1 0,-0.9052928 l 0.681223,-0.9292308 a 0.76471095,0.76693863 0 0 0 -0.699972,-1.21617 l -1.141113,0.1247795 a 0.76471095,0.76693863 0 0 1 -0.785131,-0.4560613 l -0.463249,-1.0539001 a 0.76471095,0.76693863 0 0 0 -1.399992,0 l -0.463249,1.0539001 a 0.76471095,0.76693863 0 0 1 -0.781772,0.4526493 l -1.141101,-0.1247951 a 0.76471095,0.76693863 0 0 0 -0.699983,1.2161699 l 0.681272,0.9292207 a 0.76471095,0.76693863 0 0 1 0,0.9052872 l -0.681272,0.9292086 a 0.76471095,0.76693863 0 0 0 0.699983,1.21617 l 1.141101,-0.1246301 a 0.76471095,0.76693863 0 0 1 0.781772,0.4526555 l 0.463249,1.0539 a 0.76471095,0.76693863 0 0 0 1.399992,0 l 0.463249,-1.0539 a 0.76471095,0.76693863 0 0 1 0.781723,-0.4526555 l 1.141112,0.1246301 a 0.76471095,0.76693863 0 0 0 0.699972,-1.21617 z m -3.104854,1.5253372 a 1.972239,1.9779843 0 1 1 1.96715,-1.9780018 1.972239,1.9779843 0 0 1 -1.96715,1.9780018 z m 2.127244,-5.07821234 -0.534813,-0.30916684 0.633608,-1.10341822 0.534765,0.3091591 z M -19.729472,2.1763241 V 2.7946504 L -21,2.7839733 V 2.1655024 Z m 7.449554,0.7174047 0.0094,-0.6183602 L -11,2.2966146 -11.009373,2.91495 Z m -5.27975,-3.78347815 -0.538183,0.30406743 -0.628447,-1.11028878 0.538174,-0.3040323 z m -0.599482,6.47713465 0.533059,0.3143119 -0.643785,1.0982998 -0.531355,-0.3142866 z m 3.828675,0.2886836 0.527957,-0.321121 0.659126,1.0880373 -0.528005,0.3211291 z"
       id="path4"
       style="stroke-width:0.170566;fill-opacity:1;fill:currentColor;"
       class="ColorScheme-Text" />
    <path
       d="M -3.6519407,-6.0000029 H -28.348058 c -0.91077,0 -1.651942,0.6220882 -1.651942,1.5099999 v 17.643 c 0,0.946836 0.489162,1.847 1.651942,1.847 h 9.089644 c -0.283623,0.895651 -0.950823,2.014291 -2.295686,2.014291 v 0.985709 h 11.108201 v -0.985709 c -1.344863,0 -2.012063,-1.11864 -2.295686,-2.014291 H -3.752 c 1.413091,0 1.752,-0.900164 1.752,-1.847 V -4.3898714 c 0,-0.8879117 -0.7411714,-1.6101315 -1.6519407,-1.6101315 z M -2.961,13.052809 c 0.00297,0.156166 -0.1386982,0.947188 -0.791,0.947188 H -28.348058 C -29,13.999997 -29,13.209003 -29,13.052809 V 10.999997 H -3 Z M -3,9.999997 h -26 v -14.09 c 0,-0.9100001 0.591428,-0.882823 0.752,-0.883 l 24.496,-0.027 c 0.1602148,-1.766e-4 0.752,-10e-8 0.752,1.01 z"
       id="path2"
       style="fill-opacity:1;fill:currentColor"
       sodipodi:nodetypes="sssssccccccsssssscsccscccsssc"
       class="ColorScheme-Text" />
  </g>
</svg>
